<svg width="100" height="100" viewBox="0 0 100 100" xmlns="http://www.w3.org/2000/svg">
  <!-- Background -->
  <rect width="100" height="100" rx="20" fill="#FFFFFF"/>
  
  <!-- Main icon elements -->
  <g transform="translate(15, 15) scale(0.7)">
    <!-- Location pin -->
    <path d="M50 10C36.2 10 25 21.2 25 35C25 53.2 50 90 50 90C50 90 75 53.2 75 35C75 21.2 63.8 10 50 10Z" fill="#9CA4A9"/>
    
    <!-- Inner circle -->
    <circle cx="50" cy="35" r="10" fill="#FFFFFF"/>
    
    <!-- Star inside pin -->
    <path d="M50 28L52.9 33.9L59.3 34.7L54.6 39.2L55.8 45.6L50 42.6L44.2 45.6L45.4 39.2L40.7 34.7L47.1 33.9L50 28Z" fill="#9CA4A9"/>
  </g>
  
  <!-- Decorative elements -->
  <circle cx="20" cy="20" r="8" fill="#9CA4A9" opacity="0.3"/>
  <circle cx="80" cy="80" r="8" fill="#9CA4A9" opacity="0.3"/>
  <circle cx="80" cy="20" r="5" fill="#9CA4A9" opacity="0.3"/>
  <circle cx="20" cy="80" r="5" fill="#9CA4A9" opacity="0.3"/>
</svg> 